{"title":"A Single Shot (2013) DD5.1 Eng Sp NL Subs WEB-DL2DVD-NLU002","uid":9469427,"size":4510368779,"categoryP":"video","categoryS":"movies_dvdr","magnet":"?xt=urn:btih:be0b1665c12a16875cbccb4f5d70b47ddcb8a715&amp;dn=A+Single+Shot+%282013%29+DD5.1+Eng+Sp+NL+Subs+WEB-DL2DVD-NLU002&amp;tr=udp%3A%2F%2Ftracker.openbittorrent.com%3A80&amp;tr=udp%3A%2F%2Fopen.demonii.com%3A1337&amp;tr=udp%3A%2F%2Ftracker.coppersurfer.tk%3A6969&amp;tr=udp%3A%2F%2Fexodus.desync.com%3A6969","seeders":4,"leechers":0,"uploader":"NLUPPER002","files":-1,"time":1389524330,"description":"A Single Shot (2013) DD5.1 Eng Sp NL Subs WEB-DL2DVD-NLU002\n.\n[IMG]http://imagizer.imageshack.us/v2/800x600q90/513/7g8b.jpg[/IMG]\n.\nR  -  116 min  -  Crime | Drama | Thriller  -  25 April 2013 (USA) \nRated R for some strong violence, sexual content, nudity, language and brief drug use\n. &lt;a href=&quot;\nhttp://www.imdb.com/title/tt1540741/&quot; rel=&quot;nofollow&quot; target=&quot;_NEW&quot;&gt;\nhttp://www.imdb.com/title/tt1540741/&lt;/a&gt;\n. &lt;a href=&quot;\nhttp://www.moviemeter.nl/film/92041&quot; rel=&quot;nofollow&quot; target=&quot;_NEW&quot;&gt;\nhttp://www.moviemeter.nl/film/92041&lt;/a&gt;\n. &lt;a href=&quot;\nhttp://www.movieweb.com/movie/a-single-shot&quot; rel=&quot;nofollow&quot; target=&quot;_NEW&quot;&gt;\nhttp://www.movieweb.com/movie/a-single-shot&lt;/a&gt;\n.\nPLOT\n.\nThe tragic death of a beautiful young girl starts a tense.\nand atmospheric game of cat and mouse between hunter John Moon,\nand the hardened backwater criminals out for his blood. \n.\nSource: 1080p WEB-DL\nFormat: DVD5\nVideo: NTSC  -  USA/Japan\nAudio: English DD5.1\nSubtitles: Dutch, English, Spanish. White and Yellow.\nMenu: Yes Custom\nCharpter Selection: Yes Motion\nNL Vertaling: 'BÃžre'.\nControle en bewerking: Goffini\n.\nEnjoy\n.\nOverall bit rate                         : 5 042 Kbps\nWriting library                          : encoded by TMPGEnc Authoring Works 5 Version. 5.1.3.57\n\nVideo\nID                                       : 224 (0xE0)\nFormat                                   : MPEG Video\nFormat version                           : Version 2\nFormat profile                           : Main@Main\nFormat settings, BVOP                    : Yes\nFormat settings, Matrix                  : Custom\nFormat settings, GOP                     : M=3, N=12\nDuration                                 : 28mn 23s\nBit rate mode                            : Variable\nBit rate                                 : 4 558 Kbps\nMaximum bit rate                         : 7 304 Kbps\nWidth                                    : 720 pixels\nHeight                                   : 480 pixels\nDisplay aspect ratio                     : 16:9\nFrame rate                               : 23.976 fps\nStandard                                 : NTSC\nColor space                              : YUV\nChroma subsampling                       : 4:2:0\nBit depth                                : 8 bits\nScan type                                : Progressive\nScan order                               : 2:3 Pulldown\nCompression mode                         : Lossy\nBits/(Pixel*Frame)                       : 0.550\nTime code of first frame                 : 00:00:00:00\nTime code source                         : Group of pictures header\nStream size                              : 925 MiB (90%)\nSource encoded stream size               : encoded by TMPGEnc Authoring Works 5 Version. 5.1.3.57\nWriting library                          : TMPGEnc Authoring Works 5 Version. 5.1.3.57\nColor primaries                          : BT.601 NTSC\nTransfer characteristics                 : BT.601\nMatrix coefficients                      : BT.601\n\nAudio\nID                                       : 189 (0xBD)-128 (0x80)\nFormat                                   : AC-3\nFormat/Info                              : Audio Coding 3\nMode extension                           : CM (complete main)\nFormat settings, Endianness              : Big\nMuxing mode                              : DVD-Video\nDuration                                 : 28mn 22s\nBit rate mode                            : Constant\nBit rate                                 : 384 Kbps\nChannel(s)                               : 6 channels\nChannel positions                        : Front: L C R, Side: L R, LFE\nSampling rate                            : 48.0 KHz\nBit depth                                : 16 bits\nCompression mode                         : Lossy\nStream size                              : 78.0 MiB (8%)\n\n","torrent":{"xt":"urn:btih:be0b1665c12a16875cbccb4f5d70b47ddcb8a715","amp;dn":"A+Single+Shot+%282013%29+DD5.1+Eng+Sp+NL+Subs+WEB-DL2DVD-NLU002","amp;tr":["udp%3A%2F%2Ftracker.openbittorrent.com%3A80","udp%3A%2F%2Fopen.demonii.com%3A1337","udp%3A%2F%2Ftracker.coppersurfer.tk%3A6969","udp%3A%2F%2Fexodus.desync.com%3A6969"],"infoHash":"be0b1665c12a16875cbccb4f5d70b47ddcb8a715","infoHashBuffer":{"type":"Buffer","data":[190,11,22,101,193,42,22,135,92,188,203,79,93,112,180,125,220,184,167,21]},"announce":[],"urlList":[]}}